<svg xmlns="http://www.w3.org/2000/svg" height="151.73mm" width="151.29mm" version="1.1" viewBox="0 0 151.29015 151.72774"><g transform="translate(-14.873 -81.951)"><path d="m84.897 233.49c-12.306-0.86-25.027-5.09-35.273-11.72-7.1207-4.6064-8.8773-7.0216-6.9049-9.4938 2.012-2.522 3.8106-2.2113 9.3494 1.6148 2.1607 1.4926 4.1241 2.7137 4.3632 2.7137 0.23908 0 0.4347-2.4186 0.4347-5.3746v-5.3746l-5.4606-5.5996c-7.3139-7.5-7.5415-8.9767-2.5232-16.366 1.2514-1.8428 2.0722-3.5357 1.8241-3.7621-0.24815-0.22637-4.0266-1.9937-8.3966-3.9275-4.37-1.9337-8.6976-3.9733-9.6168-4.5324-0.91929-0.55905-3.5279-3.1554-5.797-5.7696s-4.2132-4.6655-4.3202-4.5585c-0.43865 0.43866 1.0952 9.858 2.3681 14.542 1.6972 6.2456 5.9529 15.284 9.891 21.008 1.7013 2.4725 2.9919 4.925 2.9919 5.6854 0 3.3664-4.4948 4.6526-6.9832 1.9983-3.8167-4.0712-9.5813-14.611-12.221-22.345-2.7774-8.137-3.7256-14.29-3.749-24.328-0.0245-10.516 0.69455-15.196 3.728-24.262 4.0034-11.966 10.605-22.302 19.721-30.878 18.923-17.801 45.059-24.742 70.223-18.649 28.357 6.8663 50.122 29.38 56.297 58.232 1.6404 7.6655 1.7774 22.824 0.26941 29.823-1.6324 7.5764-4.0112 14.283-7.3209 20.639-14.109 27.095-42.278 42.814-72.895 40.675zm10.641-7.8825c10.431-0.86446 18.056-3.0616 27.009-7.7823 4.3012-2.2678 4.6758-2.5906 4.4409-3.8273-0.14109-0.7428-0.8976-6.9434-1.6812-13.779-0.78355-6.8357-1.6088-12.635-1.8338-12.887-0.22923-0.25661-2.365-0.16705-4.8568 0.20366-7.5892 1.1291-9.4854-0.11932-13.945-9.1807-3.3102-6.7265-3.7343-8.5098-2.905-12.216 0.9625-4.3009 8.5073-15.983 11.348-17.571 0.92725-0.51825 0.90536-0.62457-0.39665-1.9266-1.7912-1.7912-1.7503-3.5509 0.1607-6.9149 1.0866-1.9128 1.649-3.7965 1.914-6.4108 0.4811-4.7461 1.2962-6.6835 3.4986-8.3159 0.97622-0.72355 6.4158-3.7708 12.088-6.7716 5.6721-3.0008 10.421-5.5427 10.553-5.6486 0.13173-0.10592-1.0905-1.5226-2.716-3.1481l-2.9555-2.9555-2.6752 3.9644c-1.4713 2.1804-3.065 4.114-3.5415 4.2969-2.7785 1.0662-5.5397-0.59664-5.5397-3.3362 0-0.97725 0.89817-2.8651 2.4222-5.0911 1.3322-1.9459 2.5343-3.8302 2.6714-4.1874 0.28281-0.73701-5.289-4.2555-10.089-6.3712-3.8738-1.7074-10.952-4.0466-11.273-3.7256-0.13009 0.13009-0.55629 1.9147-0.94711 3.9658s-1.106 4.5626-1.5894 5.5812c-1.3259 2.7941-14.06 13.614-16.757 14.237-1.8456 0.42685-4.8312-0.79946-5.8796-2.415-0.4405-0.67878-2.3997-5.756-4.3538-11.283-1.9541-5.5267-3.6201-10.133-3.7021-10.235-0.47348-0.59301-15.094 5.0981-15.727 6.1216-0.16371 0.26488 0.0359 1.4178 0.44355 2.5621 1.0314 2.895 0.94436 6.9731-0.20266 9.4981-0.53189 1.1709-2.5931 3.9859-4.5804 6.2555-3.7938 4.3327-3.767 4.1884-1.063 5.7255 0.84288 0.47915 1.1372 0.40354 1.5866-0.40761 0.30347-0.54773 1.3965-1.8717 2.4289-2.942 2.203-2.2839 4.8965-2.9983 7.9056-2.0968 2.8219 0.84545 10.321 8.7772 11.126 11.768 1.043 3.8735 0.13416 5.3675-11.39 18.723-5.8176 6.7423-11.315 12.775-12.217 13.406-1.1282 0.78945-2.9902 1.3016-5.9658 1.641-2.3792 0.27134-4.5256 0.61685-4.7698 0.76779-0.52712 0.32578-1.8719 3.4383-1.5785 3.6533 0.11187 0.082 3.6543 1.6808 7.872 3.5529 7.2131 3.2017 7.9042 3.4039 11.635 3.4039h3.9665l10.365 6.4581c11.063 6.8929 13.798 9.2881 14.783 12.944 1.1529 4.2817 0.50825 6.4719-5.7136 19.411l-5.8477 12.161 1.6687 0.37182c0.91775 0.2045 3.5726 0.54124 5.8996 0.74831s4.35 0.40692 4.4954 0.44412c0.14544 0.0372 3.0301-0.16159 6.4104-0.44174zm9.478-108.34c-2.5358-2.4123-2.8406-4.5259-0.91371-6.3362 1.8045-1.6952 3.7197-1.4588 6.1786 0.76266 2.5433 2.2977 2.8626 4.6067 0.89297 6.4572-1.8407 1.7292-3.6901 1.4639-6.1579-0.88366zm-36.801-4.5026c-0.59393-0.42555-2.119-2.9604-3.3891-5.633-2.5734-5.4152-2.5595-6.9432 0.0768-8.4229 2.5932-1.4555 4.0683-0.38619 6.8851 4.9913 1.3711 2.6175 2.5015 5.2682 2.5121 5.8904 0.0461 2.7078-3.8785 4.7552-6.0849 3.1743zm7.0569 97.247c3.2574-6.8304 5.9226-12.965 5.9226-13.633 0-0.66775-0.36424-1.7341-0.80943-2.3697-0.82513-1.178-18.419-12.404-19.604-12.509-0.60337-0.0531-7.0883 8.7147-7.0883 9.5836 0 0.21428 2.4394 2.8367 5.4209 5.8276l5.4209 5.438 0.26444 9.3002 0.26443 9.3003 1.5866 0.69733c0.87264 0.38352 1.8368 0.71665 2.1427 0.74027 0.30585 0.0236 3.2212-5.5455 6.4787-12.376zm69.636-11.303c1.8352-2.4298 4.5271-6.7136 5.9819-9.5197 2.5843-4.9846 5.4042-12.337 5.4042-14.091 0-0.48315-2.044-4.2932-4.5423-8.4668-5.1754-8.6459-3.9124-7.862-13.704-8.5063-6.2217-0.40941-8.7467-1.28-10.746-3.7049-1.3532-1.6417-1.6021-1.7395-3.2923-1.2933-1.0056 0.26544-2.8389 0.74477-4.0739 1.0652-1.2351 0.3204-2.691 1.0607-3.2355 1.6452-2.0396 2.1892-7.4763 11.534-7.4763 12.851 0 0.75184 1.148 3.5723 2.551 6.2677 2.8741 5.5214 1.752 5.0274 9.8775 4.349 3.8912-0.32485 4.3773-0.25303 6.0534 0.89435 3.1493 2.1558 3.5415 3.4218 5.0551 16.317 0.76823 6.5448 1.5077 12.241 1.6433 12.657 0.34158 1.05 6.2603-4.8468 10.503-10.464zm12.972-50.477c-1.2888-8.9638-4.3546-17.705-8.8078-25.112-1.3503-2.246-2.5242-4.1684-2.6086-4.272-0.0844-0.10356-5.4037 2.6236-11.821 6.0604-8.5347 4.571-11.667 6.503-11.667 7.1958 0 1.1093 0.59381 1.151 5.1331 0.36055 4.4914-0.78215 7.1594-0.0861 12.769 3.3313l4.4154 2.6901 1.8167-0.86634c2.3922-1.1408 3.4657-1.0929 5.1472 0.22979 1.7864 1.4052 1.8616 3.7726 0.17349 5.4607-0.67101 0.67101-1.5182 1.3194-1.8826 1.4409-0.97623 0.32541 1.883 7.6996 5.0277 12.967l2.5703 4.3052 0.16367-4.8341c0.09-2.6587-0.10312-6.6896-0.42919-8.9574zm-122.24 9.5867c1.8144-2.2224 3.5174-2.9224 8.1678-3.3568l4.132-0.386 10.084-11.608c11.396-13.119 10.93-11.952 6.5064-16.294l-2.2541-2.2122-1.1818 2.1027c-1.4107 2.5101-4.4228 4.3429-7.1371 4.3429-2.395 0-7.7246-2.7206-9.5278-4.8636-0.70068-0.83271-1.4289-2.34-1.6183-3.3495-0.64266-3.4256 0.12147-5.1648 4.5446-10.344 4.1735-4.8864 4.8028-6.2806 3.8987-8.6368-0.26791-0.69815-0.68285-0.55961-2.5121 0.83876-11.189 8.5529-20.278 22.266-23.837 35.961-2.4328 9.363-2.6583 8.2986 3.2219 15.208 4.4938 5.2806 5.2101 5.9198 5.6996 5.0856 0.30788-0.52471 1.1236-1.6447 1.8127-2.4888zm106.96-9.8088c-0.85068-2.1656-1.5292-2.8436-5.1477-5.1436-3.9306-2.4983-4.3484-2.6422-7.3411-2.5269-1.7453 0.0672-4.5504 0.41837-6.2336 0.78036-2.7917 0.60039-3.1817 0.86275-4.442 2.9878l-1.3816 2.3296 1.7976-0.40064c5.2948-1.1801 6.1448-1.2567 8.1441-0.73457 1.287 0.33611 2.8716 1.3466 4.0462 2.5801 2.0147 2.1158 2.6526 2.2944 9.0345 2.53l2.5033 0.0924zm-49.388-45.83c4.5097-3.8212 5.0461-4.709 5.6777-9.3959l0.328-2.432-2.797-0.336c-5.7766-0.69377-14.168-0.19896-14.168 0.83543 0 0.27938 1.2206 3.931 2.7125 8.1147 1.7687 4.9602 2.9188 7.4843 3.3054 7.2548 0.32614-0.19359 2.5501-2.0103 4.942-4.0371z" stroke-width=".52887"/></g></svg>
